<?xml version="1.0" encoding="UTF-8"?><svg id="a" xmlns="http://www.w3.org/2000/svg" viewBox="0 0 467.45 454.27"><path d="M22.895,454.27c-10.848,0-17.76-4.197-20.728-12.594-2.977-8.395-2.886-21.334.262-38.831L51.756,135.225c2.796-15.39,21.823-93.595,17.281-97.096-4.551-3.493-14.349-1.574-29.386,5.772-1.402.705-2.452,0-3.148-2.098-.706-2.099-.988-20.77.414-21.122L114.165.348c1.746-.697,3.32-.345,4.722,1.05,1.394,1.402,1.918,2.452,1.574,3.148L41.261,402.845c-2.452,10.152-2.714,17.146-.787,20.991,1.918,3.854,4.46,5.771,7.609,5.771,3.845,0,8.305-1.917,13.381-5.771,5.067-3.845,10.577-8.742,16.529-14.693,1.394-1.394,2.796-1.394,4.199,0,1.393,1.401,1.393,2.804,0,4.199-10.848,12.945-20.99,23.005-30.436,30.172-9.445,7.165-19.071,10.756-28.86,10.756Z"/><path d="M155.545,419.988c-19.596,0-34.985-4.985-46.178-14.955-11.2-9.97-18.456-22.827-21.776-38.57-3.329-15.741-3.239-32.353.262-49.85,2.443-13.291,7.347-26.672,14.692-40.143,7.347-13.463,16.53-25.622,27.549-36.47,11.02-10.839,23.524-19.497,37.52-25.975,13.987-6.468,29.033-9.707,45.128-9.707,13.643,0,23.876,2.452,30.698,7.347,6.821,4.903,9.706,11.897,8.659,20.99-1.05,8.748-5.692,17.234-13.907,25.45-8.224,8.224-19.072,15.57-32.534,22.039-13.471,6.478-28.427,11.988-44.866,16.53-16.448,4.55-33.412,7.871-50.901,9.97l1.05-6.822c25.532-3.845,46.965-10.232,64.281-19.153,17.317-8.92,27.369-21.252,30.173-36.994,1.746-8.396.697-14.693-3.149-18.891-3.853-4.199-9.101-6.297-15.742-6.297-9.101,0-17.317,3.591-24.664,10.757-7.346,7.174-13.561,16.882-18.628,29.124-5.075,12.249-8.839,25.893-11.282,40.929-3.149,18.547-3.411,35.249-.787,50.114,2.624,14.873,8.306,26.762,17.054,35.682,8.741,8.922,20.285,13.382,34.633,13.382,7.347,0,15.39-1.221,24.139-3.674,8.74-2.444,17.136-6.641,25.188-12.594.696-.696,1.656-.345,2.886,1.05,1.222,1.403,1.484,2.451.787,3.149-13.299,12.249-26.762,20.908-40.406,25.974-13.643,5.068-26.942,7.609-39.881,7.609Z"/><path d="M271.509,418.938c-8.051,0-15.479-3.147-22.302-9.445-6.821-6.296-9.526-13.643-8.134-22.039.707-4.543,2.887-8.478,6.559-11.807,3.674-3.32,8.307-4.985,13.907-4.985s9.88,1.05,12.855,3.149c2.969,2.099,5.593,4.379,7.872,6.821,2.271,2.453,5.329,3.674,9.183,3.674,2.442,0,4.985-.869,7.609-2.624,2.622-1.746,5.681-5.066,9.182-9.97l41.98-62.445,4.723,6.822-40.93,65.068c-6.649,10.495-12.159,18.457-16.529,23.876-4.379,5.428-8.487,9.093-12.332,11.019-3.854,1.919-8.395,2.886-13.643,2.886ZM391.677,418.938c-8.397,0-15.137-2.451-20.205-7.346-5.075-4.895-9.888-14.34-14.43-28.337l-38.831-122.791c-3.502-11.889-7.528-19.325-12.069-22.301-4.552-2.969-8.922-4.461-13.119-4.461-4.904,0-9.798,1.492-14.693,4.461-4.904,2.976-9.972,7.084-15.218,12.331-1.05,1.402-2.363,1.312-3.935-.262-1.574-1.574-1.665-2.886-.263-3.935,12.594-13.291,23.876-23.262,33.846-29.911,9.97-6.641,19.326-9.97,28.073-9.97,8.397,0,15.301,2.541,20.728,7.608,5.42,5.076,10.233,14.783,14.432,29.124l38.833,123.315c3.845,11.544,7.87,18.628,12.069,21.252,4.195,2.624,8.394,3.935,12.592,3.935,5.248,0,10.231-1.483,14.956-4.46,4.722-2.967,9.708-7.084,14.953-12.331,1.396-1.394,2.799-1.313,4.199.262,1.396,1.574,1.396,2.886,0,3.935-12.592,13.299-23.876,23.27-33.846,29.911-9.97,6.642-19.332,9.97-28.071,9.97ZM357.568,316.613l-5.248-6.822,41.98-65.593c6.641-10.839,12.15-18.891,16.529-24.138,4.372-5.248,8.478-8.831,12.331-10.758,3.849-1.918,8.217-2.886,13.119-2.886,8.044,0,15.483,3.148,22.304,9.445s9.708,13.471,8.659,21.515c-.353,4.55-2.453,8.659-6.298,12.331-3.852,3.673-8.577,5.51-14.168,5.51s-9.797-1.222-12.592-3.673c-2.806-2.444-5.428-4.805-7.874-7.084-2.449-2.272-5.598-3.411-9.443-3.411-2.099,0-4.64.877-7.609,2.624-2.976,1.755-6.036,4.903-9.185,9.445l-42.503,63.495Z"/></svg>